PathFileType	4	(X/Y/Z)	C:/Users/opensim2020/Desktop/walking_exp_matlab/subject03_walking06_straight_03.trc																																																																																																																																		
DataRate	CameraRate	NumFrames	NumMarkers	Units	OrigDataRate	OrigDataStartFrame	OrigNumFrames																																																																																																																														
100	100	4	44	mm	100	1995	280																																																																																																																														
Frame#	Time	LFHD			RFHD			LBHD			RBHD			C7			T10			CLAV			STRN			RBAK			LSHO			LUPA			LELB			LFRM			LWRA			LWRB			LFIN			RSHO			RUPA			RELB			RFRM			RWRA			RWRB			RFIN			LASI			RASI			LPSI			RPSI			LTHI			LKNE			LTIB			LANK			LHEE			LTOE			RTHI			RKNE			RTIB			RANK			RHEE			RTOE			*39			*40			*41			*42			*43		
		X1	Y1	Z1	X2	Y2	Z2	X3	Y3	Z3	X4	Y4	Z4	X5	Y5	Z5	X6	Y6	Z6	X7	Y7	Z7	X8	Y8	Z8	X9	Y9	Z9	X10	Y10	Z10	X11	Y11	Z11	X12	Y12	Z12	X13	Y13	Z13	X14	Y14	Z14	X15	Y15	Z15	X16	Y16	Z16	X17	Y17	Z17	X18	Y18	Z18	X19	Y19	Z19	X20	Y20	Z20	X21	Y21	Z21	X22	Y22	Z22	X23	Y23	Z23	X24	Y24	Z24	X25	Y25	Z25	X26	Y26	Z26	X27	Y27	Z27	X28	Y28	Z28	X29	Y29	Z29	X30	Y30	Z30	X31	Y31	Z31	X32	Y32	Z32	X33	Y33	Z33	X34	Y34	Z34	X35	Y35	Z35	X36	Y36	Z36	X37	Y37	Z37	X38	Y38	Z38	X39	Y39	Z39	X40	Y40	Z40	X41	Y41	Z41	X42	Y42	Z42	X43	Y43	Z43	X44	Y44	Z44
																																																																																																																																					
1	0	-1164.33606	1604.08704	1389.90674	-1159.72681	1608.75256	1522.4104	-1286.83911	1547.32983	1398.95984	-1278.59521	1552.46326	1529.65405	-1301.35474	1405.64233	1464.78394	-1366.10242	1097.75769	1469.01318	-1184.97815	1317.67419	1454.82776	-1160.50293	1148.797	1449.36047	-1360.2019	1240.89429	1570.97278	-1241.22986	1358.36499	1301.59229	-1297.01855	1162.01794	1246.60205	-1316.76001	1038.86646	1242.77283	-1313.06152	908.23743	1245.16089	-1309.02661	789.5011	1278.92505	-1341.09265	797.46698	1233.54138	-1338.97668	713.00122	1245.91077	-1209.04553	1345.12524	1616.302	-1191.30676	1123.6084	1687.53357	-1165.53906	1012.81677	1692.01318	-1135.51318	879.55756	1680.31787	-1103.96594	791.73859	1632.30798	-1123.91272	780.11298	1681.27124	-1092.45398	716.43463	1660.97009	-1212.06445	928.3493	1342.06201	-1211.02686	916.96222	1577.44714	-1374.4353	951.24207	1390.36902	-1369.85303	958.75592	1540.85632	-1211.44324	631.77618	1281.04004	-1150.17065	468.40588	1325.43884	-1136.04126	277.77658	1313.40088	-1078.70325	73.35626	1339.11633	-1108.38684	31.99578	1376.7876	-924.32153	61.68913	1356.34399	-1319.75098	635.32349	1622.78101	-1350.54773	458.01459	1593.67297	-1455.66345	294.48126	1606.87415	-1558.52405	99.29043	1570.22986	-1612.93848	78.20068	1523.69299	-1429.74097	35.25099	1546.40247	NaN	NaN	NaN	NaN	NaN	NaN	NaN	NaN	NaN	NaN	NaN	NaN	NaN	NaN	NaN
2	0.01	-1156.71655	1604.44006	1388.38562	-1152.29309	1609.16113	1520.96973	-1279.13623	1547.45422	1397.36597	-1271.04077	1552.60925	1528.03552	-1293.61511	1405.69556	1462.81311	-1357.97864	1097.83838	1467.46045	-1177.29163	1317.78833	1453.4834	-1152.27112	1149.11169	1448.34521	-1352.67847	1241.14075	1569.09961	-1232.74011	1358.47522	1300.05957	-1287.0553	1161.62195	1244.45422	-1307.16748	1038.93323	1239.72473	-1302.93408	908.32312	1241.80542	-1298.94385	788.94617	1275.95447	-1330.10339	797.5105	1229.45154	-1328.18164	713.23932	1241.54285	-1201.76794	1345.48779	1614.84949	-1184.88745	1124.08899	1686.40125	-1159.48206	1013.20947	1691.19922	-1130.06934	879.71216	1680.0697	-1098.72046	791.48077	1632.38916	-1118.84497	780.16589	1681.37048	-1087.35352	715.58905	1660.98999	-1203.6991	928.35114	1340.71802	-1203.21252	916.93152	1576.4032	-1365.83398	951.52411	1388.62976	-1361.86145	958.63519	1539.18079	-1202.65527	632.12146	1280.18115	-1143.0083	468.23801	1324.9718	-1132.45679	276.63104	1313.24951	-1078.50696	71.65777	1339.61316	-1108.68872	30.30066	1377.14429	-924.2774	57.31017	1356.76904	-1312.33716	635.54645	1621.65332	-1343.46887	458.18973	1593.09741	-1450.7832	295.97379	1606.49377	-1556.75354	102.54489	1570.41504	-1611.33789	82.37527	1523.85522	-1429.33313	35.13321	1546.43604	NaN	NaN	NaN	NaN	NaN	NaN	NaN	NaN	NaN	NaN	NaN	NaN	NaN	NaN	NaN
3	0.02	-1149.30286	1604.9292	1386.77405	-1145.02771	1609.78552	1519.4209	-1271.51807	1547.66687	1395.71606	-1263.47302	1552.93115	1526.43286	-1285.70483	1405.99219	1460.77686	-1349.68506	1098.09045	1465.66199	-1169.31665	1318.17761	1452.01953	-1144.172	1149.47766	1447.28174	-1345.1217	1241.54309	1567.02271	-1224.01135	1358.50073	1298.40002	-1277.55725	1161.72229	1241.99634	-1296.28931	1038.61987	1236.45898	-1292.25842	908.41693	1238.1886	-1288.47083	788.69165	1272.57043	-1318.73438	797.6853	1225.18445	-1316.54846	713.47626	1236.64661	-1194.51196	1346.09363	1613.36438	-1178.51013	1124.6593	1685.09045	-1153.48145	1013.68048	1690.2699	-1124.60071	879.96906	1679.69702	-1093.52905	791.46606	1632.5946	-1113.89453	780.44067	1681.56177	-1083.10291	715.85425	1661.79736	-1194.6626	928.84186	1339.52246	-1195.16589	917.0675	1575.20837	-1357.09302	951.98572	1386.66565	-1353.7644	958.69281	1537.27405	-1193.72229	632.5033	1279.51953	-1136.58069	467.79892	1324.36633	-1129.07947	275.65018	1313.27283	-1077.04272	70.26407	1339.92725	-1108.36304	29.96361	1377.66443	-923.51984	51.83191	1357.2262	-1304.63879	635.90076	1620.54431	-1335.96484	458.49463	1592.53992	-1445.65588	297.68875	1606.19409	-1554.70056	105.91186	1570.65039	-1609.56702	87.07084	1524.06494	-1428.99976	35.11037	1546.57239	NaN	NaN	NaN	NaN	NaN	NaN	NaN	NaN	NaN	NaN	NaN	NaN	NaN	NaN	NaN
4	0.03	-1141.59216	1605.66418	1385.08423	-1137.39417	1610.60852	1517.7467	-1263.50598	1547.90027	1394.0614	-1255.67151	1553.33606	1524.73987	-1277.72058	1406.51904	1458.60071	-1341.2417	1098.53455	1463.61096	-1161.08618	1318.78638	1450.59302	-1135.75244	1150.1167	1446.20227	-1337.52747	1242.17908	1564.66492	-1215.2688	1358.81018	1296.5957	-1268.33521	1161.90442	1239.25391	-1286.13745	1038.92883	1233.16699	-1281.19568	908.68579	1234.62634	-1277.09436	788.93439	1268.48608	-1306.97363	797.88593	1221.04578	-1304.28516	713.78168	1231.62207	-1187.39075	1346.77051	1611.63965	-1172.13672	1125.36951	1683.83203	-1147.57898	1014.31537	1689.43042	-1119.25562	880.40814	1679.42639	-1088.36389	791.47565	1632.76099	-1109.01868	780.82629	1681.68713	-1078.53772	715.81146	1662.0304	-1185.59863	929.49615	1338.224	-1187.16138	917.35651	1573.9845	-1348.13904	952.69922	1384.61475	-1345.34985	958.88104	1535.34619	-1184.84021	633.15344	1278.99976	-1130.35071	467.50461	1323.73999	-1125.25769	275.37582	1313.41699	-1074.50574	70.11739	1339.52661	-1107.51709	31.39884	1377.19263	-921.53308	46.64517	1357.72375	-1296.47791	636.21222	1619.35107	-1327.97876	458.74872	1591.95081	-1439.97949	299.39429	1605.79614	-1552.2417	109.40096	1571.04089	-1607.37305	91.88755	1524.28467	-1428.6405	34.98301	1546.70459	NaN	NaN	NaN	NaN	NaN	NaN	NaN	NaN	NaN	NaN	NaN	NaN	NaN	NaN	NaN
